<svg width="67" height="92" viewBox="0 0 67 92" fill="none" xmlns="http://www.w3.org/2000/svg">
<path d="M13.3069 62.6083L11.1825 86.2291C26.8435 92.8618 35.3237 90.5497 51.9 83.6853L50.1296 55.3404C59.6177 43.8814 63.4418 36.8643 65 22.2713C65 22.2713 62.8759 15.3668 62.1675 12.823C61.4591 10.2793 62.1675 3.37475 62.1675 3.37475C56.8568 -0.622581 53.7014 6.13915 52.6078 12.823M13.3069 62.6083C1.27404 42.4603 -0.657997 33.1639 5.16349 20.4544M13.3069 62.6083C19.191 63.5723 22.1288 63.637 25.6991 61.5181M52.6078 12.823C48.4565 10.4581 46.2066 10.3494 42.34 12.823M52.6078 12.823C52.6078 12.823 52.6078 34.9902 44.4644 34.9902C41.9308 34.9902 39.0282 31.3562 39.0282 31.3562M42.34 12.823C38.0407 9.58697 35.3558 9.07264 29.5938 12.823M42.34 12.823C42.34 12.823 41.6321 32.4464 34.9047 37.8974C28.1773 43.3483 29.5938 12.823 29.5938 12.823M29.5938 12.823C21.985 11.9064 19.8094 13.4743 17.2016 17.5472M29.5938 12.823C29.5938 12.823 31.3643 37.8974 26.4075 37.8974C21.4506 37.8974 17.2016 17.5472 17.2016 17.5472M17.2016 17.5472C12.3761 14.1025 9.75882 15.61 5.16349 20.4544M17.2016 17.5472C17.2016 17.5472 23.2209 35.717 17.2016 37.8974C11.1823 40.0777 5.16349 20.4544 5.16349 20.4544" stroke="white" stroke-width="3" stroke-linecap="round"/>
</svg>
