<svg width="54" height="117" viewBox="0 0 54 117" fill="none" xmlns="http://www.w3.org/2000/svg">
<path d="M35.3596 15.9509C35.3596 15.9509 35.359 7.64246 40.6698 8.72616C45.9805 9.80987 47.3967 24.2594 47.3967 24.2594C47.8517 43.6879 49.1185 49.7277 51.5712 62.1896M35.3596 15.9509C35.3596 15.9509 35.3596 2.94633 29.3407 2.22385C23.3218 1.50137 23.6759 9.80987 23.6759 9.80987M35.3596 15.9509V38.709M23.6759 9.80987C23.6759 9.80987 21.9063 5.11376 17.303 6.91996C12.6996 8.72615 12.7003 21.7308 12.7003 21.7308M23.6759 9.80987V41.2377M12.7003 21.7308C12.7003 21.7308 9.86843 16.3122 6.32791 21.7308C2.7874 27.1494 2.07874 59.6609 2.07874 59.6609C1.58969 81.8184 3.42395 84.2553 6.32735 90.3662C6.89384 91.2332 6.56339 103.01 6.32735 108.789C18.4632 116.685 27.3681 116.482 44.919 112.402L43.5028 90.3662C50.237 79.4089 51.3444 74.5517 52 66.5244L51.5712 62.1896M12.7003 21.7308V41.2377M51.5712 62.1896C45.5247 54.7195 41.825 51.2357 33.5893 48.8237C33.5893 48.8237 12.7003 46.295 12.7003 50.6299C12.7003 54.9648 26.3865 62.1204 36.4217 65.4407C22.4222 56.2901 23.197 65.9732 23.6759 81.6965" stroke="white" stroke-width="3"/>
</svg>
