<svg width="96" height="118" viewBox="0 0 96 118" fill="none" xmlns="http://www.w3.org/2000/svg">
<path d="M46.3671 66.5057C41.4238 35.6345 42.0933 46.6482 51.4057 26.4742L64.142 17.0876H80.2373M19.5169 50.3551L17.2556 53.9441C8.13563 77.1094 5.80944 88.2098 2 107.779C17.474 117.685 27.306 118.262 46.3671 112.473C46.0997 106.893 48.5504 103.462 55.7444 97.0124C70.0497 87.8152 89.1947 71.199 91.0142 68.4383C92.8337 65.6775 92.1339 56.2908 92.1339 56.2908C92.1339 56.2908 96.3327 50.0791 92.1339 44.6955C87.9351 39.3119 77.998 59.3276 77.998 59.3276L67.7809 66.5057L55.7444 53.9441C52.8069 49.6504 54.2053 45.7698 55.7444 39.3119L64.142 26.4742H73.6592C73.6592 26.4742 86.2556 29.9252 87.5152 23.1613C88.7748 16.3974 80.2373 17.0876 80.2373 17.0876M19.5169 50.3551L41.6085 15.293C47.4868 12.2562 59.8032 6.34809 62.0426 7.01068C63.6966 7.50007 69.3594 5.89991 75.8986 7.01068M19.5169 50.3551C21.1173 47.8151 23.5281 36.6892 24.5335 31.4437C24.5335 31.4437 37.9696 7.56287 46.3671 3.8358C54.7647 0.108739 66.8012 3.83577 66.8012 3.83577L75.8986 7.01068M75.8986 7.01068C78.2128 7.40378 82.9856 7.83888 84.1562 11.0138C85.3268 14.1888 80.2373 17.0876 80.2373 17.0876" stroke="white" stroke-width="3"/>
</svg>
