<svg width="67" height="126" viewBox="0 0 67 126" fill="none" xmlns="http://www.w3.org/2000/svg">
<path d="M31.8421 32.6358C33.8503 31.5316 63.4168 41.9418 61.8914 46.1176C60.3661 50.2934 56.4823 50.9806 56.4378 49.9987M31.8421 32.6358L20.6513 40.3163M31.8421 32.6358C31.8421 32.6358 31.3586 10.9832 31.3586 8.12338C31.3586 5.26361 26.6612 0.769682 25.0033 2.60811C23.3454 4.44654 20.6513 40.3163 20.6513 40.3163M20.6513 40.3163C20.6513 40.3163 6.97368 45.9133 5.9375 50.8158C4.90132 55.7183 3.30754 72.3093 2.99617 83.9076M60.6221 48.7731C60.6221 48.7731 65 48.7731 65 50.4073C65 52.0414 60.0263 57.9653 60.0263 57.9653C60.0263 57.9653 60.2336 62.0507 58.1612 64.9104C56.0888 67.7702 47.5092 75.6959 46.3487 76.3495C45.1882 77.0032 28.7336 95.5509 27.9046 99.2278C27.0757 102.905 26.2467 120.145 26.2467 121.289C16.2525 125.171 11.0806 124.605 2 122.719C2 121.396 2.4822 103.052 2.99617 83.9076M24.5888 73.0812L23.7599 63.4806L26.6612 54.2884L31.3586 50.8158M2.99617 83.9076C2.99617 83.9076 8.63158 56.5354 10.2895 53.4713C11.9474 50.4073 26.2467 40.6023 30.8059 39.581C35.3651 38.5596 56.9178 47.3432 56.7105 50.8158C56.5033 54.2884 51.5296 54.9012 51.5296 54.9012L50.2862 54.2884M31.3586 50.8158L33.2928 49.3859L41.5822 49.9987L50.2862 54.2884M31.3586 50.8158L30.8059 54.9012C30.8059 54.9012 32.6711 61.1927 37.6447 63.4806C42.6184 65.7684 46.3487 60.4165 46.3487 60.4165L50.2862 54.2884" stroke="white" stroke-width="3"/>
</svg>
