<svg width="65" height="105" viewBox="0 0 65 105" fill="none" xmlns="http://www.w3.org/2000/svg">
<path d="M57.0126 34.7238C57.0126 34.7238 63.0001 40.7737 63 50.7382C62.9999 60.7027 48.5599 72.8024 48.5599 72.8024V98.7812C29.8255 105.558 21.3111 103.656 6.64816 98.7812L9.46576 70.6672C-0.163934 48.7467 -0.808028 36.6443 9.46576 15.5067M57.0126 34.7238C62.9999 27.9622 60.1823 8.03331 54.8994 5.89806C49.6165 3.76282 45.0379 5.89806 45.0379 5.89806M57.0126 34.7238C57.0126 34.7238 53.8428 39.3502 50.3208 36.8591C46.7988 34.3679 48.789 30.0975 48.789 30.0975M45.0379 5.89806C45.0379 5.89806 41.5157 1.27165 34.4718 2.33927C27.4279 3.4069 25.3147 8.03331 25.3147 8.03331M45.0379 5.89806L47.9615 24.7593M25.3147 8.03331C25.3147 8.03331 22.4971 5.89806 15.8053 8.03331C9.11365 10.1686 9.46576 15.5067 9.46576 15.5067M25.3147 8.03331C32.7552 15.1702 36.4459 19.4879 38.6064 30.0975M9.46576 15.5067C21.1197 20.2997 26.3074 23.7054 30.2454 32.5886M30.2454 32.5886C21.4472 36.8689 17.1792 34.1786 9.46576 30.0975M30.2454 32.5886C31.7773 34.5243 36.3247 33.3003 37.2894 32.5886C38.2542 31.8768 38.6064 30.0975 38.6064 30.0975M38.6064 30.0975C45.9344 33.1965 46.83 30.402 47.9615 24.7593M47.9615 24.7593L48.789 30.0975M48.789 30.0975C48.789 30.0975 22.4971 33.3003 23.2015 38.9943C23.9058 44.6883 35.1762 42.9089 35.1762 42.9089C44.7883 44.0879 46.0239 45.5809 46.4466 48.6029" stroke="white" stroke-width="3" stroke-linecap="round"/>
</svg>
