<svg width="66" height="120" viewBox="0 0 66 120" fill="none" xmlns="http://www.w3.org/2000/svg">
<path d="M54.4474 64.4603C54.4474 64.4603 46.3399 53.0305 47.3783 47.9226M48.7926 29.2284C48.7926 29.2284 51.2666 2.53755 44.5515 2.18167C37.8365 1.82579 41.0167 42.04 36.7762 42.3959C32.5357 42.7517 34.3022 6.80807 27.9405 6.80807C21.5789 6.80807 24.4063 51.2928 24.4063 51.2928C22.1789 51.7835 7.38112 17.1761 2.84736 22.1108C-1.6864 27.0455 13.4501 59.1221 13.4501 59.1221C13.1787 62.3462 12.9615 65.4158 12.8018 68.375M59.0414 50.8401C61.9415 55.2451 63.7979 61.8101 63.9893 68.375C64.3422 80.4749 55.86 87.5925 51.266 94.3541C46.6721 101.116 47.3783 114.639 47.3783 114.639C36.1986 120.524 27.1046 118.033 15.9241 114.639C12.7864 97.6456 11.9214 84.6875 12.8018 68.375M59.0414 50.8401C56.5963 47.1262 53.4094 44.9476 49.8529 45.5988C48.3726 45.8698 47.6226 46.7214 47.3783 47.9226M59.0414 50.8401C59.0414 50.8401 62.9285 36.346 53.3866 30.6519C43.8447 24.9578 47.3783 47.9226 47.3783 47.9226M12.8018 68.375C20.0059 62.3533 34.9463 55.4112 36.7762 56.631" stroke="white" stroke-width="3"/>
</svg>
