<svg width="134" height="71" viewBox="0 0 134 71" fill="none" xmlns="http://www.w3.org/2000/svg">
<path d="M45.4704 16.7041C45.4704 16.7041 2.40585 20.6595 2.00463 12.7486C1.60341 4.83779 27.4155 2.20085 27.4155 2.20085C27.4155 2.20085 49.0339 2.09586 66.4673 2.34961M45.4704 16.7041C43.7943 22.6591 44.4281 26.1383 49.0811 32.6576M45.4704 16.7041L78.5038 21.4506C81.9859 24.3273 84.6654 28.8117 83.051 31.3391L49.0811 32.6576M45.4704 16.7041C40.3526 11.5403 39.1799 8.78349 42.5278 4.31041C42.5278 4.31041 52.8258 5.47551 55.2331 5.47551C57.6404 5.47551 65.5043 2.33611 66.4673 2.34961M49.0811 32.6576C47.7431 39.5312 48.0846 40.9825 55.2331 45.5786M55.2331 45.5786C55.3739 54.9158 57.647 58.2315 66.3338 61.1366C78.994 66.3312 87.7835 64.1792 102.711 62.5869L109.532 69.1793C128.688 62.4277 130.908 53.9567 132 37.2723C126.258 33.1498 123.886 32.8274 115.951 23.5601C115.951 23.5601 93.4824 4.57411 87.5981 3.25563C85.4267 2.7691 76.6627 2.49801 66.4673 2.34961M55.2331 45.5786L81.8476 39.3758M81.8476 31.6481C81.8476 31.6481 85.5923 33.3168 85.4583 36.4812C85.3243 39.6455 81.8476 39.3758 81.8476 39.3758M67.9384 61.7637C67.9384 61.7637 82.516 47.029 83.3187 44.392C84.1214 41.7551 81.8476 39.3758 81.8476 39.3758" stroke="white" stroke-width="3" stroke-linecap="round"/>
</svg>
