<svg width="368" height="163" viewBox="0 0 368 163" fill="none" xmlns="http://www.w3.org/2000/svg">
<path d="M78.3604 15.3086C84.4404 16.2825 90.7163 16.9865 97.3945 17.3613L92 107H103.574L101.26 161.379C84.2173 163.203 68.2018 163.398 51.5215 162.123L56.4668 106.5H69.5L78.3604 15.3086ZM20.5 0C31.1855 3.23143 40.7839 6.26251 50.0664 8.87207L39 106.5H52.4668L47.5508 161.795C32.7119 160.464 17.2502 157.996 0 154.5L20.5 0ZM144.5 101.517L155.901 99.3096L155.087 151.384C136.78 155.934 120.572 159.076 105.279 160.924L107.574 107H121L126.417 16.9873C132.09 16.5681 138.094 15.9476 144.5 15.1074V101.517ZM208.351 136.925C200.189 139.046 191.596 141.403 182.5 144C174.303 146.354 166.529 148.474 159.104 150.37L159.913 98.5332L175.5 95.5166V9.92285C177.788 9.46979 180.121 8.99747 182.5 8.5C190.634 7.23344 198.301 6.1161 205.555 5.14355L208.351 136.925ZM245 81L260.429 78.7598L262.432 125.427C247.913 127.59 232.152 130.902 214.318 135.397L211.538 4.36328C222.533 2.96804 232.558 1.92492 241.826 1.21875L245 81ZM319.739 5.34473C329.461 7.46459 339.153 10.1993 349.5 13.5L368 132C351.427 127.532 336.258 124.585 321.057 123.219L315.081 79H326.5L319.739 5.34473ZM272.961 0.112305C278.472 0.182464 283.733 0.416154 288.822 0.803711L296 79H311.081L317.012 122.893C300.892 121.743 284.593 122.373 266.407 124.856L264.403 78.1826L276 76.5L272.961 0.112305Z" fill="url(#paint0_linear_86_35)"/>
<defs>
<linearGradient id="paint0_linear_86_35" x1="361" y1="5.50002" x2="-66.5" y2="235.5" gradientUnits="userSpaceOnUse">
<stop stop-color="#00758A"/>
<stop offset="0.201233" stop-color="#481A63"/>
<stop offset="0.453739" stop-color="#781542"/>
<stop offset="0.793232" stop-color="#E67E6F"/>
<stop offset="1" stop-color="#EBA392"/>
</linearGradient>
</defs>
</svg>
